# xmcd
#
# Track frame offsets: 
#        150
#        15160
#        30110
#        44385
#        59357
#        77105
#        92547
#        103415
#        115157
#        130635
#        141995
#        155037
#        169597
#        185725
#        202780
#        213997
#        231400
#        241275
#        254997
#        266767
#
# Disc length: 4177 seconds
#
# Revision: 2
# Processed by: cddbd v1.5.2PL0 Copyright (c) Steve Scherf et al.
# Submitted via: ExactAudioCopy v1.0b1
#
DISCID=16104f14
DTITLE=Various Artist - From Spirituals to Swing - The Legendary 1938
DTITLE=and 1939 Carnegie Hall Concerts Produced by John Hammond - Disc 
DTITLE=3 of 3
DYEAR=1999
DGENRE=Jazz
TTITLE0=Benny Goodman Sextet - I Got Rhythm (mono)
TTITLE1=Benny Goodman Sextet - Flying Home (mono)
TTITLE2=Benny Goodman Sextet - Memories Of You (mono)
TTITLE3=Benny Goodman Sextet - Stompin' At The Savoy (mono)
TTITLE4=Benny Goodman Sextet - Honeysuckle Rose (mono)
TTITLE5=James P. Johnson - Blueberry Rhyme (mono)
TTITLE6=James P. Johnson - The Mule Walk (mono)
TTITLE7=Ida Cox - Lowdown Dirty Shame (mono)
TTITLE8=Ida Cox - 'Fore Day Creep (mono)
TTITLE9=Big Bill Broonzy and Albert Ammons - Done Got Wise (mono)
TTITLE10=Big Bill Broonzy and Albert Ammons - Louise, Louise (mono)
TTITLE11=Sonny Terry - Mountain Blues (mono)
TTITLE12=Sonny Terry and Bull City Red - The New John Henry (mono)
TTITLE13=The Kansas City Six - Paging The Devil (mono)
TTITLE14=The Kansas City Six - Way Down Yonder In New Orleans (mono)
TTITLE15=The Kansas City Six - Good Morning Blues (mono)
TTITLE16=Helen Humes and James P. Johnson with Count Basie and His Orchest
TTITLE16=ra - Old Fashioned Love (mono)
TTITLE17=Helen Humes and James P. Johnson with Count Basie and His Orchest
TTITLE17=ra - If I Could Be With You One Hour Tonight (mono)
TTITLE18=Count Basie and His Orchestra - That Rhythm Man (mono)
TTITLE19=Jam Session - Oh, Lady Be Good (mono)
EXTD=
EXTT0=
EXTT1=
EXTT2=
EXTT3=
EXTT4=
EXTT5=
EXTT6=
EXTT7=
EXTT8=
EXTT9=
EXTT10=
EXTT11=
EXTT12=
EXTT13=
EXTT14=
EXTT15=
EXTT16=
EXTT17=
EXTT18=
EXTT19=
PLAYORDER=
